DataType=double
version=3
OpenSimVersion=4.4-2022-10-11-798caa840
endheader
time	ground_force_r_vx	ground_force_r_vy	ground_force_r_vz	ground_force_r_px	ground_force_r_py	ground_force_r_pz	ground_force_l_vx	ground_force_l_vy	ground_force_l_vz	ground_force_l_px	ground_force_l_py	ground_force_l_pz	ground_torque_r_x	ground_torque_r_y	ground_torque_r_z	ground_torque_l_x	ground_torque_l_y	ground_torque_l_z
2.44	-4.097252513966648	3.255127830778327	-0.1168071927688938	0.9812339341006727	0	-0.41132924519259	81.71050514689924	721.6548050352704	27.835814585885	0.510596656911857	0	-0.5776629171135546	0	-1.402779877493487e-06	0	0	-3.504404526093078	0
2.445	-6.569912190860736	6.120512851529677	-0.3025079262196356	0.9836502417630901	0	-0.4112232335962558	85.75278416166202	722.1995788401089	24.6293177191109	0.5119006357641274	0	-0.5765585131985185	0	-9.301817097018272e-06	0	0	-3.029877917495003	0
2.45	-10.43276107865193	11.4007495065318	-1.073054676226343	0.9848535523190353	0	-0.4110692338271558	89.8451573426139	721.2990963305551	23.95890482359481	0.5132812834654241	0	-0.5755272129607026	0	-7.715788193585205e-05	0	0	-2.680910588937058	0
2.455	-3.570568793305974	20.34758863954385	-1.936417453739198	0.9840983350758781	0	-0.4110631234599713	94.07898586428544	718.2705124991945	24.70252676628624	0.5147153351712539	0	-0.5746493044034581	0	-0.0005359409571485951	0	0	-2.522361820658507	0
2.46	7.931031147952258	32.69658892666537	-2.428400490845904	0.9841953441196356	0	-0.4110605575860489	97.93717797913851	712.5723777033888	24.2385053448208	0.5162467082680767	0	-0.5737980535378354	0	-0.001961835501551157	0	0	-2.430147605898666	0
2.465	15.85726823067817	51.74573967463294	-2.696819474927151	0.984897129594565	0	-0.4109611875092663	101.7317532800331	704.4720231824933	23.67829060284564	0.5179146524330823	0	-0.5728508797027531	0	-0.006896602747963776	0	0	-2.308227786285508	0
2.47	19.30555232939619	90.58619090907435	-2.470566181705182	0.9857388964600795	0	-0.4107531042329006	105.6603364083365	693.4722337704072	23.10185311380045	0.5197877162908688	0	-0.57166122434975	0	-0.02358844483018396	0	0	-2.048761412288185	0
2.475	19.764603121694	148.3598902327845	-1.106276733918866	0.9868711268396703	0	-0.4103926854900098	109.2453903370317	679.0848137173052	21.71292024686185	0.5218996398149066	0	-0.5701785057162984	0	-0.07781605267490055	0	0	-1.582627861367852	0
2.48	19.37284135993308	208.8244683361268	1.21205530066952	0.9887016396604492	0	-0.4098153286169268	112.5189108997459	661.189186095418	20.06074650504639	0.5242424867591109	0	-0.568474287742801	0	-0.2313103684352376	0	0	-0.9947517072285752	0
2.485	18.12296532070677	259.8619696088408	3.97244448745368	0.9915529452896303	0	-0.4091427537855347	115.3937512587652	639.3883010849731	18.33847632734642	0.5268436436253207	0	-0.5665632243650504	0	-0.6010964183874123	0	0	-0.4019354416289609	0
2.49	13.27589322655137	298.8930336247882	6.824115269916559	0.9958592523921858	0	-0.408813262163889	117.4137029829812	612.5756443754099	16.38127920179954	0.5297648750011609	0	-0.5644379745771593	0	-1.405260444380282	0	0	0.08760794893202117	0
2.495	5.712617271778091	330.4379167982013	10.50023762762401	1.002764841590888	0	-0.4091672665138346	118.5354210702583	578.5657024731689	14.01342572702005	0.5330597489016055	0	-0.5621906160244428	0	-2.85237747021292	0	0	0.4089375319827662	0
2.5	-3.822338313730406	359.7066299220668	13.49744099054068	1.012771784570471	0	-0.4098809878749491	119.3985235099129	536.2270822253417	11.89792517939059	0.536779503192766	0	-0.5599361388959184	0	-4.608668626287933	0	0	0.5708279472777784	0
2.505	-14.57869561259674	384.5724130472959	13.80174899790815	1.024031564213032	0	-0.4105631784114401	119.2092628362738	487.1584171745529	9.686384450392641	0.5409095134760359	0	-0.5578590380620569	0	-6.024644191719766	0	0	0.6252012159938323	0
2.51	-24.68986442119855	406.0228628848879	13.3763962999905	1.036104579529477	0	-0.4118736862250728	115.7096262453586	432.2123347066279	7.117114747916141	0.5455064557151745	0	-0.556145259385429	0	-7.220102802166389	0	0	0.6242783832902745	0
2.515	-35.04853347783581	425.6991396331657	11.60774815017237	1.047732008743873	0	-0.4139223651642271	109.4839618105073	369.317118995026	5.101093118894303	0.5508228820373504	0	-0.5549763811823162	0	-7.854980010532856	0	0	0.6172581101221009	0
2.52	-43.62183973355412	439.064596566938	7.901566764941089	1.057001189179196	0	-0.4157205265308462	103.6518748699636	300.208232163377	2.579401229273153	0.5579092190512178	0	-0.5534338914419609	0	-7.810237285816912	0	0	0.478007041601177	0
2.525	-50.62694177006996	447.7690011685576	3.841486534231734	1.064318985763129	0	-0.4169701272515397	96.44447728448806	239.2610606470029	0.6103881210300306	0.5664905966693482	0	-0.5505490748073664	0	-7.462286498231517	0	0	0.2264200338065113	0
2.53	-56.97366323149316	454.1178929372472	-0.5746751220418247	1.069661125684972	0	-0.4175592310929551	86.54904473718706	201.3326608922115	-2.247157313999843	0.5719608787496311	0	-0.5448131557296002	0	-6.808053866504619	0	0	0.05085356919873796	0
2.535	-61.76788753666435	459.8038411041971	-5.345178180890242	1.073173660670187	0	-0.4174683419891843	78.47160846736294	182.1721915080165	-3.223151057114443	0.5733101429285257	0	-0.5426345166736151	0	-5.983163022845723	0	0	-0.00279377381276058	0
2.54	-65.89175295849181	465.2902905180244	-9.529402444447399	1.075640368919301	0	-0.4169112199372587	73.16889974297428	172.3384466937113	-3.804189438633335	0.5738211980258729	0	-0.5426322810061448	0	-5.202544504864404	0	0	-0.0001729794675124907	0
2.545	-69.49094205391798	470.9685863878716	-13.39626610354879	1.077795072383317	0	-0.4161271849258094	64.68942836541412	169.0216934791078	-4.901019628475946	0.5743283003161167	0	-0.542549922651328	0	-4.571982875458925	0	0	-7.982606477030529e-05	0
2.55	-72.23283877046433	477.5317507236849	-17.04481652623681	1.079813885232357	0	-0.4151999824427819	54.13128872676675	168.2425845499654	-5.079674235081729	0.574888960523957	0	-0.5424401233608289	0	-4.090386205795344	0	0	-8.971720279271622e-05	0
2.555	-74.09513009645184	486.4209711274726	-20.38317233327435	1.081712582728274	0	-0.4141383722703334	44.1700557588549	165.7667785445194	-4.6593948001506	0.5755966101056937	0	-0.5423282122113007	0	-3.767091764551218	0	0	-6.603446960351533e-05	0
2.56	-75.13563564454068	499.7452900236178	-23.60542353065988	1.083426517736473	0	-0.4128915430401367	36.08557067680518	157.5811039389079	-4.003113202844168	0.5764809913898943	0	-0.5422195601355462	0	-3.540298087265121	0	0	-1.001779150877624e-05	0
2.565	-75.40619786036808	517.545245533674	-26.89229149023729	1.08499685061233	0	-0.4114957900906881	29.15630056867554	141.4881486464516	-3.670276289022423	0.5775232699400347	0	-0.5421187701357628	0	-3.221452482894033	0	0	-1.673189373718742e-07	0
2.57	-74.94952096542058	536.7969943565333	-30.038878092499	1.086587805825869	0	-0.4100936799694611	22.40959201581179	117.744195896621	-3.007196326723575	0.5787073852191598	0	-0.5420020693927757	0	-2.858476144797958	0	0	-3.04037905962673e-10	0
2.575	-73.983055615247	555.7566237011343	-32.79529505463606	1.088228718089107	0	-0.4087678222448959	16.02099631333296	89.01344142419687	-2.567197277561586	0.5800359687621188	0	-0.5418753629152029	0	-2.515537166196836	0	0	-1.407762795224698e-13	0
2.58	-72.56724279605429	575.5195376620326	-35.48212523102726	1.089718408433133	0	-0.407483041543626	8.507705267299091	59.77405985267386	-2.850611283542507	0.5814432190641388	0	-0.5417466946208965	0	-2.049304338429614	0	0	-1.77635683940025e-15	0
2.585	-71.01742476978013	595.7172077697651	-37.70850038347862	1.090907709198884	0	-0.4062093444655013	-0.5547821860443477	33.21958031666975	-4.208978840735152	0.5828199588576363	0	-0.5416539747237143	0	-1.394784762584521	0	0	0	0
2.59	-69.59969166619729	614.6921764033914	-39.29331066323641	1.091789353447884	0	-0.4049532396803439	-6.770275719072442	12.14392135717084	-3.656452347359354	0.5842666745245719	0	-0.5414718733061525	0	-0.6224422598083095	0	0	8.881784197001252e-16	0
2.595	-68.10125324816642	631.9721873531854	-40.72432887041133	1.092371354149208	0	-0.4037067767136341	0.2335178128321071	-0.2387775235884903	0.06022717420345219	0.5876051744048407	0	-0.5406803469382849	0	0.1458566956547998	0	0	-2.081668171172169e-17	0
2.6	-66.8756042674635	645.9549996523466	-41.59247406465025	1.092865430237844	0	-0.4025418109717797	0.1127018102320913	-0.09802182036879638	0.01816475842375902	0.5930313406769283	0	-0.5398543627756547	0	0.7433198127467335	0	0	-8.673617379884035e-18	0
2.605	-65.88793567562458	655.5324420049384	-41.89094899458917	1.093546652316807	0	-0.4015491935821278	0.127401256964047	-0.09990241020827594	0.01568479565517749	0.5999387948014637	0	-0.5390872908867647	0	1.115990211203872	0	0	1.040834085586084e-17	0
2.61	-64.85131164387121	662.5031917996297	-42.14182000141705	1.094416094082698	0	-0.4007088140926984	-0.06423667371330269	0.04560057768488712	-0.006732352852165174	0.608155545426766	0	-0.5383069041328191	0	1.391420687308369	0	0	-1.821459649775647e-17	0
2.615	-63.82717680887235	667.9942705278479	-42.22688979567396	1.095383432437169	0	-0.3999657261639734	-0.07214925633194316	0.04646153139610509	-0.00656795692526288	0.617837109273797	0	-0.5374874808606369	0	1.638628656041099	0	0	-2.090341788552053e-16	0
2.62	-62.74090897784335	671.6820203401537	-42.24121178374616	1.096454081287575	0	-0.3992882042257552	-0.2047037977626534	0.1212937565955391	-0.01657383062657007	0.6289069861292147	0	-0.5366372013458921	0	1.836828565580198	0	0	-3.488528910189359e-15	0
2.625	-61.515283753985	673.6952650760853	-42.3456051890397	1.097684186573707	0	-0.3986698481293289	-0.3168954599802417	0.1748932810433282	-0.02340695591109997	0.641181532573355	0	-0.5357596263242824	0	2.022606211516283	0	0	-9.882893114987468e-14	0
2.63	-60.18602802664628	674.4310044959379	-42.46600161307438	1.099101351939433	0	-0.3981107142937713	-0.2989494712167304	0.1544331778805984	-0.02044981674170085	0.6545925531637247	0	-0.5348558337247913	0	2.233447541693998	0	0	-2.180528327344611e-12	0
2.635	-58.80276221162546	673.9770858541029	-42.58422000783511	1.100704487146815	0	-0.3976047870404857	-0.2530892742391414	0.1230368511141448	-0.0161462687428566	0.669077394342484	0	-0.5339312498568267	0	2.458129570693799	0	0	7.253246614435938e-12	0
